<svg width="64" height="79" viewBox="0 0 64 79" fill="none" xmlns="http://www.w3.org/2000/svg">
  <path d="M52.3275 14.7926C46.8866 9.2882 39.68 6.25706 32.0209 6.25004H32.0004C26.2846 6.24089 20.6957 7.95532 15.9597 11.1761C15.5438 11.4596 15.437 12.0287 15.7188 12.4471C16.0006 12.8677 16.5665 12.9751 16.9825 12.6917C21.4166 9.67663 26.6482 8.06965 32.0004 8.07878H32.0185C39.1912 8.07878 45.9438 10.927 51.037 16.0794C56.1302 21.2318 58.9142 28.0482 58.8782 35.2624V35.2647C58.8668 39.1849 57.9986 43.0547 56.3373 46.6003C55.6032 48.1478 54.4509 49.4554 53.01 50.3697C51.569 51.2841 49.9008 51.7709 48.1963 51.7709C46.6327 51.7686 45.3668 50.4954 45.3668 48.925L45.3645 23.1634C45.3645 22.6605 44.9577 22.249 44.4554 22.249C43.9554 22.249 43.5463 22.6605 43.5463 23.1634V28.8415C41.7213 25.6961 38.6964 23.44 35.1757 22.5941C31.6552 21.746 27.9414 22.3838 24.9008 24.3588C21.8576 26.3315 19.7508 29.4723 19.0646 33.0476C18.3805 36.6227 19.1782 40.3261 21.2737 43.293H21.276C21.5782 43.6656 22.1146 43.7365 22.5032 43.4576C22.8919 43.1787 23.001 42.6461 22.751 42.237C20.5373 39.0916 20.035 35.0433 21.4123 31.4473C22.7896 27.8516 25.8623 25.1887 29.6008 24.3496C33.3395 23.5107 37.2465 24.6102 40.0125 27.2778C42.7761 29.9454 44.0306 33.8249 43.3534 37.6169C42.6761 41.4091 40.1579 44.6092 36.6444 46.143C33.1308 47.6745 29.0878 47.3385 25.8715 45.2446C25.6692 45.1052 25.4192 45.0526 25.1783 45.1006C24.9374 45.1486 24.7261 45.2926 24.592 45.5006C24.4579 45.7064 24.4147 45.9601 24.4692 46.2001C24.5238 46.4424 24.6738 46.6504 24.8829 46.7784C27.9238 48.758 31.6395 49.4026 35.1648 48.5569C38.6875 47.7134 41.7172 45.4549 43.5441 42.3094V48.9226C43.5487 51.5034 45.6282 53.5927 48.1919 53.5973C50.2418 53.5973 52.2487 53.0121 53.9805 51.9103C55.7123 50.8108 57.0987 49.2381 57.9782 47.3774C59.7532 43.5919 60.6805 39.4592 60.6941 35.2734C60.7373 27.5654 57.7646 20.2962 52.3282 14.7919L52.3275 14.7926Z" fill="black" />
  <path d="M45.6777 58.3821C41.4936 60.8691 36.7165 62.1675 31.8548 62.1401C17.1278 62.0601 5.13656 49.9448 5.1255 35.128C5.09823 27.9068 7.96868 20.9758 13.0848 15.9081C13.4416 15.5515 13.4439 14.9732 13.0893 14.6143C12.737 14.2555 12.1598 14.2532 11.803 14.6098H11.8053C6.34163 20.0205 3.28045 27.4201 3.3078 35.1299C3.31916 50.948 16.1212 63.8865 31.8466 63.9684H32.0011C37.1397 63.973 42.1853 62.5854 46.6077 59.9567C47.0395 59.6983 47.1827 59.136 46.9258 58.7017C46.6713 58.2674 46.1122 58.1234 45.6804 58.3817L45.6777 58.3821Z" fill="black" />
</svg>