<svg width="64" height="57" fill="none" xmlns="http://www.w3.org/2000/svg">
  <path d="M14.477 4.736C21.57 10.105 29.199 20.991 32 26.833c2.801-5.842 10.43-16.728 17.523-22.097 5.118-3.874 13.41-6.871 13.41 2.667 0 1.905-1.083 16.002-1.718 18.29-2.208 7.957-10.255 9.986-17.413 8.758 12.512 2.147 15.694 9.259 8.82 16.37-13.054 13.508-18.763-3.388-20.227-7.717-.268-.794-.393-1.165-.395-.85-.002-.315-.127.056-.396.85-1.462 4.329-7.171 21.225-20.227 7.718-6.874-7.112-3.691-14.224 8.821-16.37-7.158 1.227-15.205-.802-17.413-8.759-.635-2.289-1.719-16.386-1.719-18.29 0-9.538 8.293-6.541 13.41-2.667z" fill="#000" />
</svg>