<svg width="64" height="57" viewBox="0 0 64 57" fill="none" xmlns="http://www.w3.org/2000/svg">
  <path d="M14.4769 4.73601C21.5698 10.1049 29.199 20.9907 32.0001 26.8326C34.8014 20.9911 42.4302 10.1048 49.5233 4.73601C54.6412 0.862049 62.9334 -2.1354 62.9334 7.40264C62.9334 9.30751 61.8502 23.4046 61.2149 25.6932C59.0066 33.65 50.9596 35.6794 43.8016 34.4511C56.3136 36.5981 59.4965 43.71 52.6226 50.8219C39.5677 64.3288 33.8589 47.433 32.3954 43.1037C32.1272 42.31 32.0018 41.9387 31.9999 42.2544C31.9981 41.9387 31.8726 42.31 31.6044 43.1037C30.1416 47.433 24.4329 64.3292 11.3772 50.8219C4.50321 43.71 7.68603 36.5977 20.1982 34.4511C13.0401 35.6794 4.99291 33.6499 2.78491 25.6932C2.14958 23.4044 1.06641 9.3073 1.06641 7.40264C1.06641 -2.1354 9.35889 0.862049 14.4765 4.73601H14.4769Z" fill="black" />
</svg>