<svg width="64" height="64" fill="none" xmlns="http://www.w3.org/2000/svg">
  <g clip-path="url(#a)">
    <path fill-rule="evenodd" clip-rule="evenodd" d="M32 0c17.674 0 32 14.688 32 32.81 0 14.492-9.158 26.787-21.866 31.13-1.622.322-2.198-.702-2.198-1.576 0-1.081.038-4.614.038-9.005 0-3.059-1.024-5.056-2.172-6.073 7.126-.813 14.614-3.587 14.614-16.19 0-3.583-1.242-6.508-3.296-8.805.333-.83 1.43-4.166-.314-8.685 0 0-2.681-.879-8.79 3.364-2.557-.726-5.296-1.092-8.016-1.104-2.72.012-5.456.378-8.01 1.104-6.115-4.243-8.803-3.364-8.803-3.364-1.737 4.519-.64 7.856-.31 8.685-2.045 2.297-3.296 5.222-3.296 8.806 0 12.57 7.472 15.387 14.579 16.215-.915.82-1.744 2.265-2.032 4.386-1.824.839-6.458 2.29-9.312-2.725 0 0-1.693-3.152-4.906-3.382 0 0-3.12-.042-.217 1.993 0 0 2.096 1.008 3.552 4.8 0 0 1.878 5.856 10.78 3.872.017 2.743.045 5.327.045 6.108 0 .867-.588 1.882-2.185 1.578C9.168 59.606 0 47.305 0 32.81 0 14.688 14.33 0 32 0z" fill="#000" />
  </g>
  <defs>
    <clipPath id="a">
      <path fill="#fff" d="M0 0h64v64H0z" />
    </clipPath>
  </defs>
</svg>