<svg width="64" height="64" viewBox="0 0 64 64" fill="none" xmlns="http://www.w3.org/2000/svg">
  <g clip-path="url(#clip0_111_2)">
    <path fill-rule="evenodd" clip-rule="evenodd" d="M32 0C49.6736 0 64 14.6878 64 32.8094C64 47.3022 54.8416 59.5967 42.1344 63.9391C40.512 64.2623 39.936 63.2377 39.936 62.3641C39.936 61.2825 39.9744 57.7498 39.9744 53.3594C39.9744 50.3002 38.9504 48.3035 37.8016 47.2859C44.928 46.4731 52.416 43.6985 52.416 31.0969C52.416 27.5129 51.1744 24.5882 49.12 22.2906C49.4528 21.4618 50.5504 18.1247 48.8064 13.6063C48.8064 13.6063 46.1248 12.7271 40.016 16.9703C37.4592 16.2439 34.72 15.8784 32 15.8656C29.28 15.8784 26.544 16.2439 23.9904 16.9703C17.8752 12.7271 15.1872 13.6063 15.1872 13.6063C13.4496 18.1247 14.5472 21.4618 14.8768 22.2906C12.832 24.5882 11.5808 27.5129 11.5808 31.0969C11.5808 43.6665 19.0528 46.4837 26.16 47.3125C25.2448 48.1317 24.416 49.5768 24.128 51.6984C22.304 52.5368 17.6704 53.9878 14.816 48.9734C14.816 48.9734 13.1232 45.821 9.9104 45.5906C9.9104 45.5906 6.7904 45.5492 9.6928 47.5844C9.6928 47.5844 11.7888 48.5924 13.2448 52.3844C13.2448 52.3844 15.1232 58.2403 24.0256 56.2563C24.0416 58.9987 24.0704 61.5833 24.0704 62.3641C24.0704 63.2313 23.4816 64.2462 21.8848 63.9422C9.16799 59.6062 0 47.3054 0 32.8094C0 14.6878 14.3296 0 32 0Z" fill="black" />
  </g>
  <defs>
    <clipPath id="clip0_111_2">
      <rect width="64" height="64" fill="white" />
    </clipPath>
  </defs>
</svg>