<svg width="68" height="80" fill="none" xmlns="http://www.w3.org/2000/svg">
  <g clip-path="url(#a)">
    <mask id="b" style="mask-type:luminance" maskUnits="userSpaceOnUse" x="0" y="0" width="68" height="80">
      <path d="M68 0H0v80h68V0z" fill="#fff" />
    </mask>
    <g mask="url(#b)" fill="#F3F4F6">
      <path d="M.667 33.332c0 25.774 20.892 46.67 46.666 46.67v-6.667c-22.093 0-40-17.91-40-40.003H.667z" />
      <path d="M47.333 6.667c-14.729 0-26.666 11.94-26.666 26.664C20.667 48.06 32.604 60 47.333 60v6.667C28.922 66.667 14 51.741 14 33.33 14 14.922 28.922 0 47.333 0v6.667z" />
      <path d="M60.667 33.332c0-7.363-5.967-13.333-13.334-13.333-7.366 0-13.333 5.97-13.333 13.333s5.967 13.334 13.333 13.334v6.666c-11.048 0-20-8.955-20-20.003 0-11.045 8.952-19.997 20-19.997 11.049 0 20 8.952 20 19.997l-6.666.003z" />
    </g>
  </g>
  <defs>
    <clipPath id="a">
      <path fill="#fff" d="M0 0h68v80H0z" />
    </clipPath>
  </defs>
</svg>