<svg width="68" height="80" viewBox="0 0 68 80" fill="none" xmlns="http://www.w3.org/2000/svg">
  <g clip-path="url(#clip0_99_2)">
    <mask id="mask0_99_2" style="mask-type:luminance" maskUnits="userSpaceOnUse" x="0" y="0" width="68" height="80">
      <path d="M68 0H0V80H68V0Z" fill="white" />
    </mask>
    <g mask="url(#mask0_99_2)">
      <path d="M0.666992 33.332C0.666992 59.106 21.559 80.002 47.333 80.002V73.335C25.24 73.335 7.33299 55.425 7.33299 33.332H0.666992Z" fill="#F3F4F6" />
      <path d="M47.333 6.667C32.604 6.667 20.667 18.607 20.667 33.331C20.667 48.06 32.604 60 47.333 60V66.667C28.922 66.667 14 51.741 14 33.33C14 14.922 28.922 0 47.333 0V6.667Z" fill="#F3F4F6" />
      <path d="M60.667 33.332C60.667 25.969 54.7 19.999 47.333 19.999C39.967 19.999 34 25.969 34 33.332C34 40.695 39.967 46.666 47.333 46.666V53.332C36.285 53.332 27.333 44.377 27.333 33.329C27.333 22.284 36.285 13.332 47.333 13.332C58.382 13.332 67.333 22.284 67.333 33.329L60.667 33.332Z" fill="#F3F4F6" />
    </g>
  </g>
  <defs>
    <clipPath id="clip0_99_2">
      <rect width="68" height="80" fill="white" />
    </clipPath>
  </defs>
</svg>