<svg width="64" height="64" fill="none" xmlns="http://www.w3.org/2000/svg">
  <path d="M29.59 41.201c0 3.094-.994 5.6-2.984 7.52-1.99 1.814-4.504 2.72-7.54 2.72-3.667 0-6.704-1.226-9.113-3.68-2.304-2.453-3.456-5.973-3.456-10.56 0-4.906 1.362-9.706 4.085-14.4 2.827-4.8 6.755-8.586 11.782-11.36l3.613 5.6c-2.723 1.92-4.922 4.054-6.598 6.4-1.57 2.347-2.618 5.067-3.142 8.16.943-.426 2.043-.64 3.3-.64 2.932 0 5.34.96 7.226 2.88 1.885 1.92 2.828 4.374 2.828 7.36zm28.907 0c0 3.094-.995 5.6-2.985 7.52-1.99 1.814-4.503 2.72-7.54 2.72-3.666 0-6.703-1.226-9.112-3.68-2.304-2.453-3.457-5.973-3.457-10.56 0-4.906 1.362-9.706 4.085-14.4 2.828-4.8 6.755-8.586 11.783-11.36l3.613 5.6c-2.723 1.92-4.923 4.054-6.599 6.4-1.57 2.347-2.618 5.067-3.142 8.16.943-.426 2.043-.64 3.3-.64 2.932 0 5.341.96 7.226 2.88 1.886 1.92 2.828 4.374 2.828 7.36z" fill="#F3F4F6" />
</svg>