<svg width="64" height="64" viewBox="0 0 64 64" fill="none" xmlns="http://www.w3.org/2000/svg">
  <path d="M29.5907 41.2014C29.5907 44.2946 28.5958 46.8014 26.6058 48.7214C24.6159 50.5346 22.1023 51.4414 19.0651 51.4414C15.3994 51.4414 12.3621 50.2146 9.95323 47.7614C7.64911 45.3078 6.49707 41.7882 6.49707 37.2014C6.49707 32.2947 7.85859 27.4947 10.5816 22.8014C13.4095 18.0014 17.337 14.2147 22.3642 11.4414L25.9774 17.0414C23.2544 18.9614 21.055 21.0947 19.3793 23.4414C17.8083 25.7881 16.7609 28.5081 16.2373 31.6014C17.1799 31.1747 18.2796 30.9614 19.5364 30.9614C22.4689 30.9614 24.8778 31.9214 26.7629 33.8414C28.6481 35.7614 29.5907 38.2148 29.5907 41.2014ZM58.497 41.2014C58.497 44.2946 57.5022 46.8014 55.5122 48.7214C53.5222 50.5346 51.0086 51.4414 47.9714 51.4414C44.3058 51.4414 41.2686 50.2146 38.8596 47.7614C36.5555 45.3078 35.4034 41.7882 35.4034 37.2014C35.4034 32.2947 36.7649 27.4947 39.488 22.8014C42.3158 18.0014 46.2434 14.2147 51.2706 11.4414L54.8838 17.0414C52.1606 18.9614 49.9614 21.0947 48.2854 23.4414C46.7146 25.7881 45.6674 28.5081 45.1434 31.6014C46.0862 31.1747 47.1858 30.9614 48.4426 30.9614C51.375 30.9614 53.7842 31.9214 55.6694 33.8414C57.5546 35.7614 58.497 38.2148 58.497 41.2014Z" fill="#F3F4F6" />
</svg>